<svg width="50" height="54" viewBox="0 0 50 54" fill="none" xmlns="http://www.w3.org/2000/svg">
<path d="M47.6402 45.9844C46.5729 45.354 45.3461 45.2777 44.2596 45.6407L37.1425 41.4341C37.2373 40.588 37.7736 39.8274 38.6367 39.4884C39.9344 38.9698 40.201 37.7237 39.2354 36.7166C38.2707 35.7056 38.3485 34.1413 39.4065 33.2312C40.4607 32.3181 40.3173 31.0536 39.069 30.4186C37.8307 29.779 37.3907 28.2749 38.0988 27.0666C38.807 25.8645 38.2499 24.7117 36.8736 24.5144C35.492 24.3125 34.5865 23.0272 34.8647 21.6594C35.1444 20.2909 34.2475 19.3824 32.8751 19.6413C31.5003 19.9002 30.2351 18.9747 30.0486 17.5946C29.8698 16.2083 28.7247 15.642 27.5118 16.3316C26.3012 17.019 24.7986 16.562 24.1783 15.3122C23.5595 14.06 22.2919 13.892 21.3687 14.9446C20.4417 15.9887 18.8728 16.0434 17.8811 15.0586C16.8878 14.0815 15.6341 14.3327 15.1024 15.6235C14.5715 16.9134 13.1027 17.4752 11.8459 16.8741C10.586 16.2677 9.48408 16.9119 9.40008 18.3051C9.31609 19.6983 8.11013 20.7039 6.72 20.539C5.33604 20.3787 4.50535 21.345 4.87754 22.6866C5.24665 24.0351 4.43369 25.3798 3.06899 25.6726C1.7066 25.9685 1.23347 27.1514 2.01946 28.3065C2.8093 29.4616 2.47641 30.9904 1.2797 31.7171C0.0853004 32.4399 0.0244242 33.7152 1.14562 34.5505C2.26759 35.3835 2.44867 36.9424 1.55095 38.0112C0.657842 39.0823 1.01385 40.3098 2.34464 40.7336C3.67081 41.1574 4.35278 42.5745 3.85113 43.8768C3.3541 45.1876 4.08847 46.2302 5.48399 46.197C6.88182 46.1693 7.98375 47.2851 7.93521 48.6829C7.88512 50.0754 8.91924 50.8236 10.2285 50.342C11.5423 49.8619 12.9471 50.567 13.3532 51.8978C13.7616 53.2317 14.9806 53.6062 16.0625 52.7215C17.1467 51.8431 18.7048 52.0504 19.5217 53.1808C20.3377 54.3097 21.6169 54.2673 22.3543 53.0845C23.0941 51.8993 24.6329 51.5872 25.7765 52.3902C26.9154 53.1901 28.1059 52.7346 28.4234 51.3784C28.7378 50.0191 30.0933 49.2285 31.4294 49.6169C32.7703 50.0076 33.7512 49.19 33.6087 47.8014C33.5331 47.0878 33.7689 46.4274 34.2012 45.9458L41.521 50.2696C41.7313 51.3977 42.394 52.4364 43.4582 53.066C45.4086 54.2226 47.9338 53.5754 49.0904 51.6173C50.2378 49.6631 49.5944 47.1433 47.6402 45.9844ZM31.0472 37.8324L25.7533 34.7023C25.7141 32.9985 24.834 31.3549 23.2605 30.4256C21.5383 29.4061 19.4716 29.534 17.895 30.5535L20.8201 32.2834C21.8565 32.8953 22.1825 34.2623 21.5429 35.3365C20.9079 36.4137 19.5556 36.7906 18.5168 36.1787L15.5925 34.4488C15.4576 36.3159 16.343 38.1907 18.0691 39.2109C19.6403 40.1426 21.5036 40.1179 23.017 39.3319L28.1252 42.3518C26.7466 43.6649 25.0275 44.6651 23.0548 45.1699C16.9063 46.7534 10.6215 43.0346 9.04176 36.8892C7.4613 30.7407 11.1778 24.4543 17.3263 22.8762C23.4747 21.298 29.7604 25.0122 31.3408 31.1615C31.9288 33.4501 31.7816 35.7541 31.0472 37.8324ZM33.6079 39.3419L32.5391 38.7093C33.4792 36.2434 33.7027 33.4825 32.996 30.7346C31.1836 23.6745 23.9602 19.4055 16.8994 21.2163C9.837 23.0303 5.56721 30.2545 7.38116 37.3153C9.19742 44.3746 16.417 48.6436 23.4778 46.8305C25.9136 46.2017 28.0042 44.9248 29.6394 43.2465L30.7236 43.8845C28.9097 45.8272 26.547 47.2997 23.783 48.0102C16.0579 49.9983 8.18488 45.3455 6.19909 37.6189C4.21253 29.8908 8.86838 22.0185 16.5935 20.035C24.3185 18.0493 32.1946 22.7005 34.1773 30.4302C34.9718 33.5079 34.6959 36.5995 33.6079 39.3419ZM47.4098 50.6263L45.5203 51.6882L43.6586 50.5894L43.6817 48.4232L45.5688 47.3622L47.4321 48.4587L47.4098 50.6263ZM29.7041 11.964L30.662 12.5666C31.4603 13.0682 32.1384 14.2495 32.1723 15.1912L32.2147 16.3232C32.2478 17.2648 33.0284 17.8643 33.9454 17.6555L35.052 17.4035C35.9689 17.1947 37.2859 17.5492 37.9748 18.1903L38.8062 18.9624C39.4936 19.6035 40.4691 19.4764 40.9723 18.6796L41.5749 17.7194C42.0735 16.9219 43.2571 16.2438 44.1987 16.2099L45.3315 16.1683C46.2701 16.1344 46.8688 15.3553 46.6638 14.4368L46.4072 13.331C46.1984 12.4125 46.5529 11.0971 47.1963 10.4082L47.9684 9.57595C48.6096 8.88705 48.4832 7.91304 47.6856 7.40908L46.7255 6.80648C45.931 6.30406 45.2529 5.12353 45.2159 4.18188L45.1766 3.04913C45.1396 2.10825 44.3629 1.50797 43.4459 1.71757L42.3378 1.96723C41.4208 2.17606 40.1039 1.82236 39.415 1.18124L38.5843 0.408349C37.8946 -0.232004 36.9214 -0.106399 36.4174 0.690381L35.8141 1.65053C35.3116 2.44808 34.1303 3.12619 33.1902 3.16009L32.0582 3.2017C31.1158 3.23561 30.5163 4.01544 30.7259 4.93397L30.9756 6.03898C31.1844 6.95675 30.833 8.2729 30.1896 8.9618L29.4175 9.79325C28.781 10.4883 28.9073 11.4639 29.7041 11.964ZM38.6953 5.04108C41.2651 5.04108 43.3426 7.12242 43.3426 9.68846C43.3426 12.256 41.2651 14.3358 38.6953 14.3358C36.1292 14.3358 34.0479 12.2553 34.0479 9.68846C34.0471 7.12396 36.13 5.04108 38.6953 5.04108Z" fill="black"/>
</svg>
