<svg width="50" height="49" viewBox="0 0 50 49" fill="none" xmlns="http://www.w3.org/2000/svg">
<path d="M42.9549 0.164062C41.5169 0.166172 38.882 1.20156 37.9233 2.27344H5.19711C1.82211 2.27344 1.82211 9.02344 5.19711 9.02344H37.9242C38.8827 10.095 41.5172 11.1305 42.955 11.1328C44.761 11.1302 46.4289 9.74379 47.332 8.17969H43.166L40.8457 5.64844L43.166 3.11719H47.334C46.4306 1.55256 44.7616 0.165961 42.9549 0.164062ZM6.88461 3.96094C7.81664 3.96094 8.57211 4.71641 8.57211 5.64844C8.57211 6.58046 7.81664 7.33594 6.88461 7.33594C5.95269 7.33594 5.19711 6.58046 5.19711 5.64844C5.19711 4.71641 5.95269 3.96094 6.88461 3.96094ZM14.876 16.3008C14.0322 16.3008 13.4173 16.7267 12.7491 17.2303C12.0808 17.7338 11.3801 18.3845 10.6354 19.0939C9.18499 20.4751 7.56594 22.0776 6.03611 23.1247L10.8251 23.2444C12.0032 21.0351 12.7528 18.985 14.876 18.1992H22.3643V23.533L24.2627 23.5804V18.1992H26.6885C27.9014 18.1992 29.9525 19.305 32.0017 20.9443C33.1073 21.8288 34.2233 22.8437 35.2835 23.856L40.516 23.9868L45.7608 17.8677L44.3193 16.6323L38.0716 23.9211C36.6001 22.463 34.9126 20.8418 33.1878 19.4619C31.018 17.7264 28.8506 16.3008 26.6885 16.3008H14.876ZM3.06095 24.9496C2.53413 24.9505 1.8972 25.2428 1.41426 25.7259C0.930582 26.2094 0.637695 26.8477 0.637695 27.375C0.637695 28.7461 1.40509 30.7774 2.39196 32.3563C2.85127 33.0914 3.35415 33.7333 3.80313 34.1823C3.80302 34.1631 3.80176 34.1443 3.80176 34.125C3.80176 30.816 6.5045 28.1133 9.81348 28.1133C13.1223 28.1133 15.8252 30.816 15.8252 34.125C15.8252 34.375 15.808 34.6211 15.7781 34.8633H35.9114C35.8805 34.6184 35.8648 34.3718 35.8643 34.125C35.8643 30.816 38.567 28.1133 41.876 28.1133C45.1849 28.1133 47.8877 30.816 47.8877 34.125C47.8877 34.375 47.8705 34.6211 47.8406 34.8633H48.8311L49.3621 30.0828C49.351 28.7304 48.7002 27.7641 47.822 27.0614C46.9361 26.3527 45.7783 26.0039 45.251 26.0039H45.239L3.06095 24.9496ZM9.81348 30.0117C7.5305 30.0117 5.7002 31.842 5.7002 34.125C5.7002 36.408 7.5305 38.2383 9.81348 38.2383C12.0963 38.2383 13.9268 36.408 13.9268 34.125C13.9268 31.842 12.0963 30.0117 9.81348 30.0117ZM41.876 30.0117C39.593 30.0117 37.7627 31.842 37.7627 34.125C37.7627 36.408 39.593 38.2383 41.876 38.2383C44.1589 38.2383 45.9893 36.408 45.9893 34.125C45.9893 31.842 44.1589 30.0117 41.876 30.0117ZM19.2002 36.7617V38.2383H30.8018V36.7617H19.2002ZM24.2627 40.1367V44.9883H25.7393V40.1367H24.2627ZM20.5251 46.8867L19.7868 48.3633H30.215L29.4768 46.8867H20.5251Z" fill="black"/>
</svg>
