<svg width="54" height="54" viewBox="0 0 54 54" fill="none" xmlns="http://www.w3.org/2000/svg">
<path d="M44.9867 38.8084L33.776 27.5977L42.8753 18.4984C45.8297 19.1844 49.0581 18.3974 51.3648 16.091C53.8891 13.5689 54.5815 9.94199 53.5213 6.77L49.2373 11.0518C47.7217 12.5718 45.22 12.5245 43.6421 10.9466C42.0705 9.37281 42.0213 6.87107 43.5346 5.35364L47.8164 1.07185C44.6512 0.00488192 41.0261 0.701794 38.4977 3.22834C36.1954 5.52834 35.411 8.7563 36.0989 11.7156L26.9996 20.8127L17.9044 11.7175C18.5904 8.76081 17.7992 5.53247 15.4992 3.22796C12.9772 0.703673 9.35248 0.00901455 6.1805 1.06922L10.4623 5.35326C11.9801 6.86881 11.935 9.37281 10.3548 10.9485C8.78105 12.5223 6.28381 12.5692 4.76188 11.0559L0.479715 6.77226C-0.582748 9.93973 0.111911 13.5693 2.64071 16.0932C4.93845 18.3977 8.16641 19.1799 11.128 18.4962L20.2228 27.5887L9.01436 38.7972C6.97434 38.6559 4.88961 39.3329 3.33612 40.8954C0.471074 43.756 0.471074 48.3961 3.33612 51.2612C6.19214 54.1195 10.8346 54.1195 13.6951 51.2612C15.2531 49.7032 15.9279 47.6162 15.7979 45.5762L26.9996 34.37L38.2103 45.5807C38.0713 47.6207 38.7505 49.7077 40.3085 51.2634C43.1668 54.1262 47.8115 54.1262 50.6721 51.2634C53.5326 48.4029 53.5326 43.7627 50.6721 40.8999C49.1137 39.3423 47.0267 38.6653 44.9867 38.8084ZM9.50914 49.802L5.78113 48.8068L4.78817 45.0788L7.51196 42.3505L11.24 43.3479L12.2374 47.0737L9.50914 49.802ZM48.2146 48.8135L44.4889 49.8065L41.7606 47.0782L42.7558 43.3525L46.4838 42.355L49.2144 45.0833L48.2146 48.8135Z" fill="#010002"/>
</svg>
