<svg width="276" height="95" viewBox="0 0 276 95" fill="none" xmlns="http://www.w3.org/2000/svg">
<path fill-rule="evenodd" clip-rule="evenodd" d="M52.6934 40.759C39.3741 40.759 28.5928 51.5273 28.5928 64.8307C28.5928 78.1341 39.3741 88.9025 52.6934 88.9025C66.0127 88.9025 76.794 78.1341 76.794 64.8307C76.794 51.5273 66.0127 40.759 52.6934 40.759ZM98.4463 21.533C99.7715 24.3821 100.827 27.5678 101.636 31.0226C103.478 36.7882 100.76 37.9996 94.4707 35.644C89.8438 32.8846 85.2168 30.1028 80.5899 27.3434C78.2315 25.6833 77.1084 24.0456 77.4903 22.4304C78.2539 19.2447 84.4082 17.5846 89.4619 16.5975C95.8858 15.3188 95.4365 15.0496 98.4463 21.533ZM222.408 53.6361C216.231 53.6361 211.2 58.6389 211.2 64.8307C211.2 71.0001 216.209 76.0253 222.408 76.0253C228.585 76.0253 233.616 71.0225 233.616 64.8307C233.616 58.6389 228.607 53.6361 222.408 53.6361ZM52.6934 53.6361C46.5166 53.6361 41.4854 58.6389 41.4854 64.8307C41.4854 71.0001 46.4942 76.0253 52.6934 76.0253C58.8701 76.0253 63.9014 71.0225 63.9014 64.8307C63.9014 58.6389 58.8926 53.6361 52.6934 53.6361ZM172.365 38.3585C166.144 31.6956 158.956 27.3659 150.646 23.1931C132.452 14.04 121.312 15.1617 101.995 15.1617L108.486 31.9873C111.204 35.5767 114.281 38.1118 118.953 38.3585H172.365ZM222.408 40.759C209.089 40.759 198.308 51.5273 198.308 64.8307C198.308 78.1341 209.089 88.9025 222.408 88.9025C235.728 88.9025 246.509 78.1341 246.509 64.8307C246.509 51.5273 235.728 40.759 222.408 40.759ZM184.314 33.423C176.408 28.51 167.806 24.1129 158.282 20.3664C129.285 8.9475 107.116 6.906 76.7041 16.104C67.5401 19.5812 58.376 23.0585 49.2119 25.2122C40.1602 27.3659 0.965851 29.4298 3.05176e-05 36.003L9.68069 47.5565C6.15433 50.6075 3.27933 54.354 2.22366 60.2093C2.51566 63.8212 3.50394 66.8498 5.21097 69.2727C8.10843 73.423 16.5987 77.7079 21.1807 75.2626C22.6407 74.4774 23.4717 72.907 23.4492 70.2373C23.3145 16.6199 88.1143 22.722 83.2402 76.5637H196.309C175.375 22.6323 264.68 22.4304 248.822 74.7017C254.393 80.714 267.532 71.6507 276 52.3798C273.687 50.0915 271.148 47.9154 268.318 45.8964C268.453 45.7842 268.184 46.3226 268.655 45.515C269.127 44.7074 267.51 41.3198 264.186 39.3681C246.756 29.1606 204.731 29.4298 184.314 33.423Z" fill="url(#paint0_linear_73_47)"/>
<path d="M94.466 57.924V55.476H101.18V57.924H94.466ZM101.018 56.7C101.018 55.92 100.814 55.248 100.406 54.684C100.01 54.108 99.494 53.664 98.858 53.352C98.234 53.04 97.586 52.884 96.914 52.884C96.326 52.884 95.786 52.962 95.294 53.118C94.814 53.262 94.394 53.448 94.034 53.676C93.686 53.892 93.392 54.114 93.152 54.342V51.39C93.656 50.994 94.208 50.682 94.808 50.454C95.42 50.226 96.182 50.112 97.094 50.112C98.102 50.112 99.026 50.268 99.866 50.58C100.718 50.892 101.45 51.342 102.062 51.93C102.674 52.518 103.148 53.214 103.484 54.018C103.832 54.822 104.006 55.716 104.006 56.7C104.006 57.684 103.832 58.578 103.484 59.382C103.148 60.186 102.674 60.882 102.062 61.47C101.45 62.058 100.718 62.508 99.866 62.82C99.026 63.132 98.102 63.288 97.094 63.288C96.182 63.288 95.42 63.174 94.808 62.946C94.208 62.718 93.656 62.406 93.152 62.01V59.058C93.392 59.286 93.686 59.514 94.034 59.742C94.394 59.958 94.814 60.144 95.294 60.3C95.786 60.444 96.326 60.516 96.914 60.516C97.586 60.516 98.234 60.36 98.858 60.048C99.494 59.724 100.01 59.28 100.406 58.716C100.814 58.14 101.018 57.468 101.018 56.7ZM106.385 54.72H108.995V63H106.385V54.72ZM112.001 54.72H115.259L111.713 58.14L115.619 63H112.415L108.455 58.14L112.001 54.72ZM119.534 58.86C119.534 59.304 119.63 59.688 119.822 60.012C120.014 60.324 120.278 60.57 120.614 60.75C120.962 60.93 121.334 61.02 121.73 61.02C122.066 61.02 122.384 60.972 122.684 60.876C122.996 60.768 123.278 60.624 123.53 60.444C123.794 60.264 124.01 60.042 124.178 59.778V62.424C123.89 62.652 123.53 62.838 123.098 62.982C122.666 63.114 122.138 63.18 121.514 63.18C120.602 63.18 119.78 63 119.048 62.64C118.328 62.28 117.758 61.776 117.338 61.128C116.93 60.48 116.726 59.724 116.726 58.86C116.726 57.984 116.93 57.228 117.338 56.592C117.758 55.944 118.328 55.44 119.048 55.08C119.78 54.72 120.602 54.54 121.514 54.54C122.138 54.54 122.666 54.612 123.098 54.756C123.53 54.888 123.89 55.056 124.178 55.26V57.924C124.01 57.66 123.788 57.438 123.512 57.258C123.248 57.078 122.96 56.94 122.648 56.844C122.336 56.748 122.03 56.7 121.73 56.7C121.334 56.7 120.962 56.796 120.614 56.988C120.278 57.18 120.014 57.438 119.822 57.762C119.63 58.086 119.534 58.452 119.534 58.86ZM135.071 54.72V63H132.461V57.078H129.491V63H126.863V54.72H135.071ZM137.45 58.86C137.45 57.984 137.654 57.222 138.062 56.574C138.47 55.926 139.034 55.422 139.754 55.062C140.474 54.702 141.284 54.522 142.184 54.522C143.084 54.522 143.888 54.702 144.596 55.062C145.316 55.422 145.88 55.926 146.288 56.574C146.708 57.222 146.918 57.984 146.918 58.86C146.918 59.724 146.708 60.48 146.288 61.128C145.88 61.776 145.316 62.28 144.596 62.64C143.888 63 143.084 63.18 142.184 63.18C141.284 63.18 140.474 63 139.754 62.64C139.034 62.28 138.47 61.776 138.062 61.128C137.654 60.48 137.45 59.724 137.45 58.86ZM140.24 58.86C140.24 59.292 140.33 59.664 140.51 59.976C140.69 60.276 140.924 60.51 141.212 60.678C141.5 60.846 141.824 60.93 142.184 60.93C142.532 60.93 142.85 60.846 143.138 60.678C143.438 60.51 143.672 60.276 143.84 59.976C144.02 59.664 144.11 59.292 144.11 58.86C144.11 58.428 144.02 58.056 143.84 57.744C143.672 57.432 143.438 57.192 143.138 57.024C142.85 56.856 142.532 56.772 142.184 56.772C141.824 56.772 141.5 56.856 141.212 57.024C140.924 57.192 140.69 57.432 140.51 57.744C140.33 58.056 140.24 58.428 140.24 58.86ZM149.543 50.4H152.693V63H149.543V50.4ZM156.977 50.4H160.541L155.429 56.304L160.811 63H157.121L151.811 56.394L156.977 50.4ZM164.685 60.534C164.685 60.726 164.739 60.888 164.847 61.02C164.955 61.14 165.099 61.236 165.279 61.308C165.471 61.368 165.669 61.398 165.873 61.398C166.209 61.398 166.515 61.344 166.791 61.236C167.079 61.128 167.307 60.948 167.475 60.696C167.643 60.444 167.727 60.096 167.727 59.652L168.015 60.66C168.015 61.188 167.877 61.644 167.601 62.028C167.337 62.4 166.971 62.688 166.503 62.892C166.047 63.084 165.531 63.18 164.955 63.18C164.379 63.18 163.863 63.084 163.407 62.892C162.951 62.688 162.591 62.4 162.327 62.028C162.075 61.644 161.949 61.182 161.949 60.642C161.949 60.09 162.093 59.616 162.381 59.22C162.681 58.824 163.101 58.518 163.641 58.302C164.181 58.086 164.811 57.978 165.531 57.978C165.951 57.978 166.347 58.026 166.719 58.122C167.103 58.206 167.433 58.32 167.709 58.464C167.997 58.596 168.201 58.728 168.321 58.86V60.138C168.009 59.91 167.685 59.742 167.349 59.634C167.025 59.514 166.629 59.454 166.161 59.454C165.849 59.454 165.579 59.502 165.351 59.598C165.135 59.682 164.967 59.802 164.847 59.958C164.739 60.114 164.685 60.306 164.685 60.534ZM163.623 57.276L162.705 55.44C163.173 55.212 163.731 54.996 164.379 54.792C165.039 54.588 165.741 54.486 166.485 54.486C167.229 54.486 167.889 54.594 168.465 54.81C169.053 55.014 169.509 55.314 169.833 55.71C170.169 56.106 170.337 56.592 170.337 57.168V63H167.727V57.708C167.727 57.36 167.595 57.084 167.331 56.88C167.079 56.664 166.725 56.556 166.269 56.556C165.873 56.556 165.495 56.598 165.135 56.682C164.787 56.766 164.481 56.868 164.217 56.988C163.953 57.096 163.755 57.192 163.623 57.276ZM175.79 66.96H173.072V54.72H175.79V66.96ZM182.558 58.86C182.558 59.82 182.366 60.63 181.982 61.29C181.61 61.95 181.124 62.448 180.524 62.784C179.936 63.12 179.3 63.288 178.616 63.288C177.896 63.288 177.272 63.108 176.744 62.748C176.228 62.376 175.832 61.86 175.556 61.2C175.28 60.528 175.142 59.748 175.142 58.86C175.142 57.96 175.28 57.18 175.556 56.52C175.832 55.86 176.228 55.35 176.744 54.99C177.272 54.618 177.896 54.432 178.616 54.432C179.3 54.432 179.936 54.6 180.524 54.936C181.124 55.272 181.61 55.77 181.982 56.43C182.366 57.078 182.558 57.888 182.558 58.86ZM179.696 58.86C179.696 58.428 179.606 58.062 179.426 57.762C179.246 57.462 179.006 57.234 178.706 57.078C178.406 56.922 178.076 56.844 177.716 56.844C177.404 56.844 177.098 56.922 176.798 57.078C176.51 57.222 176.27 57.444 176.078 57.744C175.886 58.044 175.79 58.416 175.79 58.86C175.79 59.304 175.886 59.676 176.078 59.976C176.27 60.276 176.51 60.504 176.798 60.66C177.098 60.804 177.404 60.876 177.716 60.876C178.076 60.876 178.406 60.798 178.706 60.642C179.006 60.486 179.246 60.258 179.426 59.958C179.606 59.658 179.696 59.292 179.696 58.86Z" fill="white"/>
<defs>
<linearGradient id="paint0_linear_73_47" x1="276" y1="49.6132" x2="3.05176e-05" y2="49.6132" gradientUnits="userSpaceOnUse">
<stop stop-color="#9230E9"/>
<stop offset="1" stop-color="#0003D1"/>
</linearGradient>
</defs>
</svg>
