<svg width="54" height="54" viewBox="0 0 54 54" fill="none" xmlns="http://www.w3.org/2000/svg">
<path d="M16.1468 32.022C11.9439 32.022 8.52441 35.4414 8.52441 39.6444C8.52441 43.8473 11.9439 47.2667 16.1468 47.2667C20.3497 47.2667 23.7692 43.8473 23.7692 39.6444C23.7691 35.4414 20.3497 32.022 16.1468 32.022ZM18.8666 34.9841C19.3825 34.4682 20.219 34.4682 20.7349 34.9841C21.2508 35.5001 21.2508 36.3366 20.7349 36.8524C20.511 37.0763 19.854 37.3812 19.1821 37.6546C18.8911 37.2122 18.5063 36.8368 18.0559 36.5572C18.3316 35.8785 18.6404 35.2105 18.8666 34.9841ZM16.1468 33.0836C16.8764 33.0836 17.4679 33.6751 17.4679 34.4048C17.4679 34.7259 17.2119 35.4208 16.9254 36.0979C16.6744 36.0428 16.4141 36.013 16.1468 36.013C15.8795 36.013 15.6192 36.0429 15.3682 36.0979C15.0816 35.4206 14.8257 34.7258 14.8257 34.4048C14.8257 33.6751 15.417 33.0836 16.1468 33.0836ZM11.5584 34.9841C12.0744 34.4682 12.9108 34.4682 13.4267 34.9841C13.6528 35.2105 13.9616 35.8783 14.2373 36.5573C13.7869 36.8369 13.4021 37.2123 13.1111 37.6547C12.4393 37.3814 11.7824 37.0765 11.5584 36.8525C11.0425 36.3366 11.0425 35.5001 11.5584 34.9841ZM9.65791 39.5724C9.65791 38.8428 10.2494 38.2513 10.979 38.2513C11.2922 38.2513 11.9608 38.4947 12.6218 38.7726C12.5528 39.0521 12.5153 39.3439 12.5153 39.6445C12.5153 39.8982 12.5417 40.1458 12.5915 40.385C11.9403 40.6574 11.2874 40.8935 10.979 40.8935C10.2495 40.8935 9.65791 40.3021 9.65791 39.5724ZM13.4268 44.1607C12.9108 44.6767 12.0744 44.6767 11.5585 44.1607C11.0425 43.6448 11.0425 42.8083 11.5585 42.2924C11.7743 42.0766 12.3925 41.7855 13.0385 41.52C13.327 41.9966 13.7225 42.4009 14.1907 42.7016C13.9274 43.3399 13.6404 43.9471 13.4268 44.1607ZM16.1468 46.0613C15.417 46.0613 14.8257 45.4698 14.8257 44.7402C14.8257 44.4397 15.0497 43.8125 15.3133 43.1782C15.5811 43.2413 15.86 43.2757 16.1468 43.2757C16.4337 43.2757 16.7125 43.2412 16.9804 43.1782C17.2439 43.8122 17.468 44.4397 17.468 44.7402C17.4678 45.4697 16.8763 46.0613 16.1468 46.0613ZM16.1468 41.7023C15.0102 41.7023 14.0889 40.781 14.0889 39.6444C14.0889 38.5078 15.0102 37.5865 16.1468 37.5865C17.2833 37.5865 18.2047 38.5078 18.2047 39.6444C18.2045 40.7809 17.2832 41.7023 16.1468 41.7023ZM20.7351 44.1607C20.2191 44.6767 19.3826 44.6767 18.8668 44.1607C18.6533 43.9471 18.3662 43.3399 18.103 42.7015C18.5711 42.4009 18.9667 41.9966 19.2552 41.5199C19.9011 41.7855 20.5193 42.0765 20.7352 42.2923C21.2509 42.8083 21.2509 43.6448 20.7351 44.1607ZM21.3144 40.8935C21.006 40.8935 20.3531 40.6574 19.702 40.385C19.7518 40.1458 19.778 39.8981 19.778 39.6445C19.778 39.344 19.7407 39.0521 19.6715 38.7726C20.3326 38.4948 21.0011 38.2513 21.3143 38.2513C22.0441 38.2514 22.6356 38.8428 22.6356 39.5725C22.6356 40.3021 22.0441 40.8935 21.3144 40.8935Z" fill="black"/>
<path d="M52.0397 50.0821L48.3024 39.424L48.2825 32.2589L42.4316 39.0347L42.4341 39.9405C42.435 40.2715 42.492 40.6 42.6025 40.9121L46.507 52.0418C47.0483 53.5702 48.7259 54.3694 50.2531 53.8285C51.7811 53.2873 52.581 51.61 52.0397 50.0821Z" fill="black"/>
<path d="M31.1222 10.137C33.9215 10.137 36.1907 7.86776 36.1907 5.06851C36.1907 2.26925 33.9215 0 31.1222 0C28.323 0 26.0537 2.26925 26.0537 5.06851C26.0537 7.86776 28.323 10.137 31.1222 10.137Z" fill="black"/>
<path d="M49.064 21.4045L41.9536 10.0854C40.9476 8.48406 38.834 8.00153 37.2327 9.0073L32.0621 12.2554C30.4607 13.2614 29.9782 15.3749 30.984 16.9761L31.528 17.8422L34.2729 13.1809L31.729 22.1278L23.6711 24.7044C22.3862 25.1153 21.6773 26.4988 22.0867 27.7788C22.4925 29.0481 23.8605 29.7795 25.161 29.3633L34.653 26.3239C35.4348 26.0739 36.0369 25.4495 36.2606 24.6634L38.8981 14.8823C38.8697 15.842 38.6369 23.7304 38.6074 24.7326C38.5834 25.5411 37.9979 26.6771 37.4329 27.242L37.9476 28.0614L37.9477 28.0612L38.8827 29.5501L40.8877 28.2491L34.2464 35.9402C33.9385 36.2969 33.7208 36.7226 33.6122 37.1812L30.3162 50.385C29.9423 51.9621 30.9175 53.5436 32.4947 53.9178C34.0692 54.2912 35.6526 53.3192 36.0275 51.7393L39.1577 39.2336L48.5765 28.1613C50.1966 26.2568 50.3939 23.5217 49.064 21.4045Z" fill="black"/>
<path d="M30.3893 36.9799V36.9798C30.2123 36.6221 29.8447 36.3754 29.4186 36.3754H28.3471L29.2751 35.8396C29.7934 35.5405 29.9709 34.8777 29.6718 34.3594L27.735 31.0047L25.8772 31.5997C22.4283 32.7031 19.3565 30.1565 19.3565 27.0359C19.3565 26.7899 19.3758 26.5476 19.4129 26.3104C19.3806 25.7411 18.91 25.2888 18.3324 25.2888H13.9614C13.363 25.2888 12.8779 25.7739 12.8779 26.3723V27.4438L12.3421 26.5158C12.0429 25.9975 11.3802 25.82 10.8619 26.1191L7.07626 28.3049C6.55798 28.6042 6.38047 29.2668 6.67959 29.785L7.21538 30.7131L6.28734 30.1773C5.76906 29.8782 5.10649 30.0557 4.80716 30.574L2.6216 34.3594C2.32248 34.8777 2.49999 35.5403 3.01827 35.8396L3.94631 36.3754H2.87452C2.27608 36.3754 1.79102 36.8604 1.79102 37.4589V41.8299C1.79102 42.4284 2.27608 42.9134 2.87452 42.9134H3.946L3.01796 43.4492C2.49967 43.7483 2.32217 44.4111 2.62128 44.9294L4.80685 48.7148C5.10596 49.2331 5.76874 49.4106 6.28703 49.1115L7.21506 48.5757L6.67927 49.5038C6.38005 50.022 6.55766 50.6846 7.07595 50.9839L10.8614 53.1695C11.3797 53.4686 12.0423 53.2911 12.3416 52.7728L12.8774 51.8448V52.9163C12.8774 53.5147 13.3624 53.9998 13.9609 53.9998H18.3319C18.9303 53.9998 19.4154 53.5147 19.4154 52.9163V51.8448L19.9512 52.7728C20.2503 53.2911 20.9131 53.4686 21.4314 53.1695L25.2168 50.9839C25.7351 50.6848 25.9126 50.022 25.6135 49.5038L25.0777 48.5757L26.0057 49.1115C26.524 49.4108 27.1866 49.2331 27.4859 48.7148L27.8016 48.1681L29.6715 44.9294C29.9707 44.4111 29.7931 43.7485 29.2748 43.4492L28.3468 42.9134H29.4183C30.0167 42.9134 30.5018 42.4282 30.5018 41.8298C30.502 37.0106 30.5483 37.3014 30.3893 36.9799ZM16.1465 49.251C10.8494 49.251 6.53984 44.9414 6.53984 39.6443C6.53984 34.3473 10.8495 30.0376 16.1465 30.0376C21.4436 30.0376 25.7532 34.3472 25.7532 39.6443C25.7531 44.9416 21.4437 49.251 16.1465 49.251Z" fill="black"/>
</svg>
